<svg width="20" height="21" viewBox="0 0 20 21" fill="none" xmlns="http://www.w3.org/2000/svg">
<path d="M14.1925 10.942L7.94254 17.192C7.88447 17.2501 7.81553 17.2962 7.73966 17.3276C7.66379 17.359 7.58247 17.3752 7.50035 17.3752C7.41823 17.3752 7.33691 17.359 7.26104 17.3276C7.18517 17.2962 7.11623 17.2501 7.05816 17.192C7.00009 17.134 6.95403 17.065 6.9226 16.9892C6.89117 16.9133 6.875 16.832 6.875 16.7499C6.875 16.6677 6.89117 16.5864 6.9226 16.5105C6.95403 16.4347 7.00009 16.3657 7.05816 16.3077L12.8668 10.4999L7.05816 4.69205C6.94088 4.57477 6.875 4.41571 6.875 4.24986C6.875 4.08401 6.94088 3.92495 7.05816 3.80767C7.17544 3.6904 7.3345 3.62451 7.50035 3.62451C7.6662 3.62451 7.82526 3.6904 7.94254 3.80767L14.1925 10.0577C14.2506 10.1157 14.2967 10.1846 14.3282 10.2605C14.3597 10.3364 14.3758 10.4177 14.3758 10.4999C14.3758 10.582 14.3597 10.6633 14.3282 10.7392C14.2967 10.8151 14.2506 10.884 14.1925 10.942Z" fill="#868686"/>
</svg>
