<svg width="24" height="24" viewBox="0 0 24 24" fill="none" xmlns="http://www.w3.org/2000/svg">
<path d="M5.26875 9.7501C5.2675 8.86096 5.44217 7.98035 5.78271 7.15901C6.12325 6.33766 6.62292 5.5918 7.25295 4.96438C7.88297 4.33697 8.6309 3.84041 9.45366 3.50329C10.2764 3.16617 11.1577 2.99516 12.0469 3.0001C15.7594 3.02823 18.7312 6.1126 18.7312 9.83448V10.5001C18.7312 13.8564 19.4344 15.8064 20.0531 16.8751C20.1188 16.9889 20.1535 17.118 20.1536 17.2494C20.1537 17.3809 20.1193 17.51 20.0538 17.624C19.9883 17.7379 19.894 17.8326 19.7803 17.8986C19.6667 17.9647 19.5377 17.9996 19.4062 18.0001H4.59375C4.46232 17.9996 4.33332 17.9647 4.21968 17.8986C4.10603 17.8326 4.01173 17.7379 3.94621 17.624C3.8807 17.51 3.84628 17.3809 3.84639 17.2494C3.84651 17.118 3.88116 16.9889 3.94688 16.8751C4.56563 15.8064 5.26875 13.8564 5.26875 10.5001V9.7501Z" stroke="white" stroke-width="1.5" stroke-linecap="round" stroke-linejoin="round"/>
<path d="M9 18V18.75C9 19.5456 9.31607 20.3087 9.87868 20.8713C10.4413 21.4339 11.2044 21.75 12 21.75C12.7956 21.75 13.5587 21.4339 14.1213 20.8713C14.6839 20.3087 15 19.5456 15 18.75V18" stroke="white" stroke-width="1.5" stroke-linecap="round" stroke-linejoin="round"/>
</svg>
