<svg width="24" height="24" viewBox="0 0 24 24" fill="none" xmlns="http://www.w3.org/2000/svg">
<path d="M4.5 3.75L19.5 20.25" stroke="white" stroke-width="1.5" stroke-linecap="round" stroke-linejoin="round"/>
<path d="M18.1781 18.7969C17.1829 19.2608 16.098 19.5008 15 19.5H6.75C5.35761 19.5 4.02226 18.9469 3.03769 17.9623C2.05312 16.9777 1.5 15.6424 1.5 14.25C1.5 12.8576 2.05312 11.5223 3.03769 10.5377C4.02226 9.55312 5.35761 9 6.75 9C7.18925 8.99984 7.62687 9.05336 8.05312 9.15938" stroke="white" stroke-width="1.5" stroke-linecap="round" stroke-linejoin="round"/>
<path d="M10.5547 5.9529C12.0485 4.84455 13.9009 4.33086 15.7522 4.51157C17.6035 4.69228 19.3216 5.5545 20.5729 6.93081C21.8242 8.30712 22.5194 10.0993 22.5236 11.9594C22.5277 13.8195 21.8405 15.6148 20.5953 16.9967" stroke="white" stroke-width="1.5" stroke-linecap="round" stroke-linejoin="round"/>
<path d="M7.50003 12.0001C7.49632 10.6606 7.85596 9.34515 8.54065 8.19385" stroke="white" stroke-width="1.5" stroke-linecap="round" stroke-linejoin="round"/>
</svg>
