<svg width="18" height="18" viewBox="0 0 18 18" fill="none" xmlns="http://www.w3.org/2000/svg">
<path d="M10.2444 3.31246C11.1795 2.39585 12.6962 2.39585 13.6313 3.31246L14.602 4.26405C15.5371 5.18066 15.5371 6.66738 14.602 7.584L7.30546 14.7364C6.88823 15.1454 6.32255 15.3749 5.73211 15.3749H2.74391C2.46631 15.3749 2.24324 15.1507 2.25016 14.8787L2.32532 11.9231C2.34027 11.3645 2.57345 10.8319 2.9765 10.4368L10.2444 3.31246ZM9.6795 5.23425L3.67498 11.1215C3.45095 11.3411 3.3211 11.6377 3.31281 11.9478L3.25009 14.4063L5.73211 14.4066C6.02417 14.4066 6.30503 14.3059 6.52671 14.1238L6.60697 14.0518L12.6413 8.13675L9.6795 5.23425ZM12.9328 3.99715C12.3835 3.45867 11.4922 3.45867 10.9429 3.99715L10.3785 4.5495L13.3395 7.452L13.9036 6.89932C14.4224 6.39076 14.4512 5.58324 13.99 5.04147L13.9036 4.94873L12.9328 3.99715Z" fill="white"/>
</svg>
