<svg width="60" height="60" viewBox="0 0 60 60" fill="none" xmlns="http://www.w3.org/2000/svg">
<path d="M50.625 11.25H9.375C8.33947 11.25 7.5 12.0895 7.5 13.125V46.875C7.5 47.9105 8.33947 48.75 9.375 48.75H50.625C51.6605 48.75 52.5 47.9105 52.5 46.875V13.125C52.5 12.0895 51.6605 11.25 50.625 11.25Z" stroke="#808080" stroke-width="2" stroke-linecap="round" stroke-linejoin="round"/>
<path d="M7.5 39.3748L19.2891 27.5857C19.4635 27.4086 19.6715 27.2679 19.9008 27.1719C20.1302 27.0758 20.3764 27.0264 20.625 27.0264C20.8736 27.0264 21.1198 27.0758 21.3492 27.1719C21.5785 27.2679 21.7865 27.4086 21.9609 27.5857L32.4141 38.0389C32.5885 38.216 32.7965 38.3567 33.0258 38.4527C33.2552 38.5488 33.5014 38.5982 33.75 38.5982C33.9986 38.5982 34.2448 38.5488 34.4742 38.4527C34.7035 38.3567 34.9115 38.216 35.0859 38.0389L39.9141 33.2107C40.0885 33.0336 40.2965 32.8929 40.5258 32.7969C40.7552 32.7008 41.0014 32.6514 41.25 32.6514C41.4986 32.6514 41.7448 32.7008 41.9742 32.7969C42.2035 32.8929 42.4115 33.0336 42.5859 33.2107L52.5 43.1248" stroke="#808080" stroke-width="2" stroke-linecap="round" stroke-linejoin="round"/>
<path d="M36.5625 26.25C38.1158 26.25 39.375 24.9908 39.375 23.4375C39.375 21.8842 38.1158 20.625 36.5625 20.625C35.0092 20.625 33.75 21.8842 33.75 23.4375C33.75 24.9908 35.0092 26.25 36.5625 26.25Z" fill="#808080"/>
</svg>
