<svg width="24" height="24" viewBox="0 0 24 24" fill="none" xmlns="http://www.w3.org/2000/svg">
<path d="M12 16.5C14.4853 16.5 16.5 14.4853 16.5 12C16.5 9.51472 14.4853 7.5 12 7.5C9.51472 7.5 7.5 9.51472 7.5 12C7.5 14.4853 9.51472 16.5 12 16.5Z" stroke="white" stroke-width="1.5" stroke-linecap="round" stroke-linejoin="round"/>
<path d="M18.5062 7.56572C18.7319 7.88885 18.9295 8.23073 19.0969 8.5876L21.525 9.9376C21.8282 11.2955 21.8314 12.7033 21.5344 14.0626L19.0969 15.4126C18.9295 15.7695 18.7319 16.1113 18.5062 16.4345L18.5531 19.2188C17.5241 20.1566 16.3061 20.863 14.9812 21.2907L12.5906 19.8563C12.1974 19.8845 11.8026 19.8845 11.4094 19.8563L9.02813 21.2813C7.69904 20.8614 6.47709 20.1577 5.44688 19.2188L5.49375 16.4438C5.26994 16.1162 5.07245 15.7714 4.90313 15.4126L2.475 14.0626C2.17181 12.7047 2.16861 11.2969 2.46563 9.9376L4.90313 8.5876C5.07045 8.23073 5.26805 7.88885 5.49375 7.56572L5.44688 4.78135C6.47592 3.84363 7.69386 3.13716 9.01875 2.70947L11.4094 4.14385C11.8026 4.11572 12.1974 4.11572 12.5906 4.14385L14.9719 2.71885C16.301 3.13875 17.5229 3.84249 18.5531 4.78135L18.5062 7.56572Z" stroke="white" stroke-width="1.5" stroke-linecap="round" stroke-linejoin="round"/>
</svg>
