<svg width="40" height="40" viewBox="0 0 40 40" fill="none" xmlns="http://www.w3.org/2000/svg">
<circle cx="20" cy="20" r="20" fill="white"/>
<path fill-rule="evenodd" clip-rule="evenodd" d="M13.7747 12.2839C13.7747 13.529 12.8267 14.5366 11.3442 14.5366C9.91935 14.5366 8.97132 13.529 9.00066 12.2839C8.97132 10.9783 9.91933 10 11.3726 10C12.8267 10 13.7463 10.9783 13.7747 12.2839ZM9.11986 30.8191V16.3162H13.6271V30.8181H9.11986V30.8191Z" fill="#808080"/>
<path fill-rule="evenodd" clip-rule="evenodd" d="M17.2398 20.9441C17.2398 19.1352 17.1802 17.593 17.1206 16.3177H21.0356L21.2437 18.3045H21.3326C21.9259 17.3849 23.4084 15.9922 25.8106 15.9922C28.7757 15.9922 31 17.9497 31 22.2186V30.8205H26.4927V22.7833C26.4927 20.9139 25.8408 19.6394 24.2098 19.6394C22.9637 19.6394 22.2229 20.4995 21.9268 21.3292C21.8076 21.6263 21.7489 22.0407 21.7489 22.4569V30.8205H17.2416V20.9441H17.2398Z" fill="#808080"/>
</svg>
