<svg width="30" height="25" viewBox="0 0 30 25" fill="none" xmlns="http://www.w3.org/2000/svg">
<path d="M28.6858 8.68051L19.9979 7.59189L16.1142 0.803468C16.0081 0.617605 15.8336 0.467144 15.618 0.375688C15.0774 0.145572 14.4204 0.337335 14.1501 0.803468L10.2663 7.59189L1.57843 8.68051C1.33891 8.71002 1.11991 8.80737 0.952246 8.95488C0.749545 9.13451 0.637848 9.37617 0.641698 9.62677C0.645548 9.87736 0.764629 10.1164 0.972776 10.2913L7.25859 15.5751L5.77353 23.0362C5.73871 23.2098 5.76098 23.3883 5.83784 23.5515C5.91469 23.7147 6.04304 23.856 6.20833 23.9596C6.37363 24.0631 6.56926 24.1246 6.77303 24.1371C6.97681 24.1496 7.18058 24.1127 7.36124 24.0304L15.1321 20.5079L22.903 24.0304C23.1151 24.1278 23.3615 24.1602 23.5976 24.1248C24.193 24.0363 24.5933 23.5495 24.4907 23.0362L23.0056 15.5751L29.2914 10.2913C29.4625 10.1468 29.5754 9.95795 29.6097 9.75144C29.702 9.23515 29.2846 8.75722 28.6858 8.68051Z" fill="#FFD33C"/>
</svg>
